<?xml version="1.0" encoding="UTF-8" standalone="no"?>
<!-- Created with Inkscape (http://www.inkscape.org/) -->

<svg
   version="1.1"
   id="svg2"
   width="950.66669"
   height="329.33334"
   viewBox="0 0 950.66669 329.33334"
   sodipodi:docname="AvilaU_stacked_2627_noTag.ai"
   xmlns:inkscape="http://www.inkscape.org/namespaces/inkscape"
   xmlns:sodipodi="http://sodipodi.sourceforge.net/DTD/sodipodi-0.dtd"
   xmlns="http://www.w3.org/2000/svg"
   xmlns:svg="http://www.w3.org/2000/svg">
  <defs
     id="defs6">
    <clipPath
       clipPathUnits="userSpaceOnUse"
       id="clipPath16">
      <path
         d="M 0,247 H 713 V 0 H 0 Z"
         id="path14" />
    </clipPath>
  </defs>
  <sodipodi:namedview
     id="namedview4"
     pagecolor="#ffffff"
     bordercolor="#000000"
     borderopacity="0.25"
     inkscape:showpageshadow="2"
     inkscape:pageopacity="0.0"
     inkscape:pagecheckerboard="0"
     inkscape:deskcolor="#d1d1d1" />
  <g
     id="g8"
     inkscape:groupmode="layer"
     inkscape:label="AvilaU_stacked_2627_noTag"
     transform="matrix(1.3333333,0,0,-1.3333333,0,329.33333)">
    <g
       id="g10">
      <g
         id="g12"
         clip-path="url(#clipPath16)">
        <g
           id="g18"
           transform="translate(119.6035,23.1387)">
          <path
             d="m 0,0 c 13.428,0 24.856,2.094 34.451,5.811 3.09,1.27 5.706,2.804 7.331,4.745 4.39,5.234 4.235,15.483 0.29,24.689 -0.883,2.061 -4.315,9.984 -8.99,20.618 -3.219,7.321 -9.049,7.357 -16.211,7.357 h -47.916 c -7.232,0 -12.172,-2.534 -15.558,-10.884 -4.39,-10.813 -7.271,-17.268 -8.181,-19.866 -2.483,-7.088 -3.069,-13.368 0.657,-16.366 C -50.403,13.11 -35.72,0 0,0"
             style="fill:#3d1152;fill-opacity:1;fill-rule:nonzero;stroke:none"
             id="path20" />
        </g>
        <g
           id="g22"
           transform="translate(195.2061,94.0811)">
          <path
             d="M 0,0 V 121.567 H -66.885 L -3.049,-22.959 C -0.991,-15.655 0,-7.908 0,0"
             style="fill:#3d1152;fill-opacity:1;fill-rule:nonzero;stroke:none"
             id="path24" />
        </g>
        <g
           id="g26"
           transform="translate(44,215.6479)">
          <path
             d="m 0,0 v -121.567 c 0,-11.203 1.762,-22.078 5.737,-31.824 L 74.141,0 Z"
             style="fill:#3d1152;fill-opacity:1;fill-rule:nonzero;stroke:none"
             id="path28" />
        </g>
        <g
           id="g30"
           transform="translate(115.7305,163.7148)">
          <path
             d="m 0,0 c -2.412,5.477 -4.383,4.82 -7.124,-1.864 -1.057,-2.582 -9.855,-24.523 -21.144,-51.17 -0.867,-2.046 -3.434,-9.129 1.604,-9.129 h 49.233 c 2.848,0 3.517,2.341 1.318,7.378 C 12.489,-28.707 1.698,-3.859 0,0"
             style="fill:#3d1152;fill-opacity:1;fill-rule:nonzero;stroke:none"
             id="path32" />
        </g>
        <g
           id="g34"
           transform="translate(260.1182,167.4058)">
          <path
             d="M 0,0 -14.383,34.477 -28.718,0 Z m 1.187,-2.85 h -31.088 l -2.117,-5.102 c -3.128,-7.4 -4.69,-12.23 -4.69,-14.481 0,-2.419 0.834,-4.244 2.5,-5.49 1.666,-1.246 3.857,-1.87 6.572,-1.87 v -2.848 h -24.536 v 2.848 c 3.614,0.552 6.306,1.803 8.07,3.761 1.768,1.957 3.895,6.077 6.391,12.363 0.244,0.59 1.22,2.9 2.92,6.929 l 23.772,56.244 h 2.551 l 27.129,-64.323 3.714,-8.484 c 0.82,-1.889 1.927,-3.374 3.317,-4.454 1.39,-1.08 3.478,-1.762 6.257,-2.036 v -2.848 H 0.184 v 2.848 c 3.902,0 6.545,0.285 7.925,0.858 1.378,0.569 2.07,1.705 2.07,3.404 0,0.866 -0.923,3.448 -2.765,7.753 z"
             style="fill:#3d1152;fill-opacity:1;fill-rule:nonzero;stroke:none"
             id="path36" />
        </g>
        <g
           id="g38"
           transform="translate(320.957,132.7944)">
          <path
             d="m 0,0 h -3.8 l -28.078,64.414 c -0.521,1.137 -1.342,3.104 -2.465,5.888 -1.559,3.765 -3.203,6.298 -4.925,7.593 -1.721,1.292 -4.505,1.981 -8.348,2.06 v 2.847 h 35.051 v -2.847 c -4.363,0 -7.293,-0.316 -8.796,-0.942 -1.502,-0.624 -2.252,-1.822 -2.252,-3.58 0,-1.136 0.942,-3.799 2.829,-7.987 L 2.658,13.659 21.472,58.431 c 3.168,7.411 4.753,12.241 4.753,14.488 0,4.529 -3.294,6.877 -9.876,7.036 v 2.847 H 41.101 V 79.955 C 38.592,79.872 36.378,78.986 34.465,77.296 32.55,75.601 30.899,73.121 29.507,69.851 L 24.065,57.268 Z"
             style="fill:#3d1152;fill-opacity:1;fill-rule:nonzero;stroke:none"
             id="path40" />
        </g>
        <g
           id="g42"
           transform="translate(366.0034,212.7495)">
          <path
             d="M 0,0 V 2.847 H 37.24 V 0 h -1.739 c -3.996,0 -6.612,-0.328 -7.852,-0.983 -1.238,-0.652 -2.067,-1.872 -2.484,-3.654 -0.422,-1.785 -0.629,-6.025 -0.629,-12.721 v -39.527 c 0,-6.343 0.144,-10.495 0.448,-12.456 0.299,-1.963 1.097,-3.418 2.397,-4.369 1.298,-0.952 3.788,-1.427 7.463,-1.427 h 2.396 v -2.847 H 0 v 2.847 h 2.398 c 3.477,0 5.883,0.435 7.219,1.308 1.341,0.87 2.187,2.228 2.547,4.069 0.358,1.84 0.542,6.134 0.542,12.875 v 39.527 c 0,6.42 -0.184,10.559 -0.542,12.422 -0.36,1.863 -1.155,3.151 -2.395,3.865 C 8.531,-0.36 5.852,0 1.74,0 Z"
             style="fill:#3d1152;fill-opacity:1;fill-rule:nonzero;stroke:none"
             id="path44" />
        </g>
        <g
           id="g46"
           transform="translate(477.7432,158.6426)">
          <path
             d="m 0,0 -0.608,-23.877 h -68.836 v 2.847 h 2.386 c 3.457,0 5.852,0.435 7.187,1.308 1.33,0.87 2.188,2.228 2.564,4.069 0.379,1.84 0.566,6.134 0.566,12.875 v 39.527 c 0,6.419 -0.187,10.559 -0.566,12.422 -0.376,1.863 -1.174,3.151 -2.385,3.865 -1.212,0.711 -3.869,1.071 -7.96,1.071 h -1.792 v 2.847 h 39.212 v -2.847 h -3.624 c -4.026,0 -6.665,-0.328 -7.911,-0.983 -1.249,-0.652 -2.087,-1.873 -2.509,-3.654 -0.422,-1.785 -0.635,-6.025 -0.635,-12.721 V -5.455 c 0,-5.825 0.161,-9.475 0.479,-10.94 0.314,-1.465 1.175,-2.605 2.588,-3.417 1.404,-0.814 4.43,-1.218 9.071,-1.218 h 6.127 c 4.957,0 8.634,0.429 11.032,1.289 2.397,0.856 4.68,2.732 6.845,5.622 2.163,2.888 4.132,7.595 5.918,14.119 z"
             style="fill:#3d1152;fill-opacity:1;fill-rule:nonzero;stroke:none"
             id="path48" />
        </g>
        <g
           id="g50"
           transform="translate(532.9111,167.4058)">
          <path
             d="M 0,0 -14.382,34.477 -28.713,0 Z m 1.187,-2.85 h -31.086 l -2.12,-5.102 c -3.124,-7.4 -4.685,-12.23 -4.685,-14.481 0,-2.419 0.832,-4.244 2.498,-5.49 1.668,-1.246 3.859,-1.87 6.569,-1.87 v -2.848 h -24.53 v 2.848 c 3.615,0.552 6.303,1.803 8.068,3.761 1.77,1.957 3.897,6.077 6.389,12.363 0.25,0.59 1.221,2.9 2.924,6.929 l 23.769,56.244 h 2.55 l 27.129,-64.323 3.718,-8.484 c 0.818,-1.889 1.924,-3.374 3.313,-4.454 1.391,-1.08 3.478,-1.762 6.26,-2.036 v -2.848 H 0.19 v 2.848 c 3.9,0 6.541,0.285 7.922,0.858 1.378,0.569 2.074,1.705 2.074,3.404 0,0.866 -0.928,3.448 -2.769,7.753 z"
             style="fill:#3d1152;fill-opacity:1;fill-rule:nonzero;stroke:none"
             id="path52" />
        </g>
        <g
           id="g54"
           transform="translate(246.498,122.1973)">
          <path
             d="M 0,0 H 16.321 V -1.643 C 14.176,-1.786 12.569,-2.27 11.51,-3.094 10.446,-3.917 9.797,-4.841 9.56,-5.868 9.322,-6.892 9.201,-8.884 9.201,-11.839 v -16.136 c 0,-4.126 -0.159,-7.189 -0.485,-9.191 -0.327,-2.003 -1.264,-3.971 -2.81,-5.9 -1.552,-1.936 -3.733,-3.471 -6.542,-4.62 -2.811,-1.143 -6.054,-1.713 -9.732,-1.713 -4.345,0 -8.029,0.732 -11.045,2.199 -3.014,1.466 -5.165,3.362 -6.453,5.686 -1.282,2.324 -1.925,5.444 -1.925,9.355 v 4.974 15.093 c 0,3.865 -0.116,6.358 -0.347,7.478 -0.229,1.122 -0.711,1.896 -1.45,2.327 -0.741,0.427 -2.362,0.644 -4.856,0.644 h -1.124 V 0 h 22.454 v -1.643 h -0.973 c -2.399,0 -3.97,-0.199 -4.712,-0.592 -0.743,-0.394 -1.243,-1.127 -1.493,-2.197 -0.253,-1.072 -0.379,-3.619 -0.379,-7.643 v -15.259 c 0,-5.291 0.245,-9.045 0.737,-11.261 0.49,-2.21 1.877,-4.148 4.157,-5.802 2.278,-1.657 5.312,-2.483 9.104,-2.483 2.973,0 5.679,0.552 8.117,1.66 2.433,1.109 4.244,2.491 5.433,4.147 1.185,1.656 1.912,3.357 2.175,5.106 0.262,1.751 0.398,4.511 0.398,8.277 v 16.504 c 0,2.739 -0.158,4.655 -0.474,5.75 C 6.663,-4.34 5.983,-3.469 4.944,-2.827 3.898,-2.181 2.254,-1.786 0,-1.643 Z"
             style="fill:#3d1152;fill-opacity:1;fill-rule:nonzero;stroke:none"
             id="path56" />
        </g>
        <g
           id="g58"
           transform="translate(310.1538,72.4707)">
          <path
             d="M 0,0 -34.812,45.575 V 11.9 c 0,-2.795 0.138,-4.629 0.415,-5.511 0.277,-0.882 1.068,-1.693 2.374,-2.434 1.303,-0.738 3.256,-1.108 5.864,-1.108 V 1.203 h -18.29 v 1.644 c 2.335,0.165 4.12,0.59 5.352,1.269 1.229,0.678 1.958,1.414 2.187,2.202 0.231,0.786 0.346,2.643 0.346,5.582 v 25.734 c 0,3.721 -0.173,6.212 -0.521,7.478 -0.347,1.263 -0.898,2.075 -1.655,2.434 -0.756,0.356 -2.44,0.538 -5.052,0.538 v 1.643 h 14.483 l 29,-37.969 v 29.024 c 0,2.147 -0.221,3.647 -0.668,4.507 -0.443,0.86 -1.351,1.543 -2.72,2.042 -1.368,0.499 -3.016,0.753 -4.937,0.753 v 1.643 H 9.001 V 48.084 C 6.958,47.915 5.346,47.517 4.166,46.9 2.99,46.275 2.244,45.53 1.924,44.656 1.602,43.783 1.444,42.307 1.444,40.23 V 0 Z"
             style="fill:#3d1152;fill-opacity:1;fill-rule:nonzero;stroke:none"
             id="path60" />
        </g>
        <g
           id="g62"
           transform="translate(321.9092,120.5547)">
          <path
             d="M 0,0 V 1.643 H 22.237 V 0 h -1.036 c -2.378,0 -3.934,-0.199 -4.669,-0.593 -0.738,-0.393 -1.229,-1.127 -1.48,-2.202 -0.25,-1.073 -0.374,-3.624 -0.374,-7.655 v -23.798 c 0,-3.82 0.091,-6.321 0.267,-7.502 0.179,-1.18 0.651,-2.056 1.423,-2.63 0.776,-0.573 2.254,-0.857 4.443,-0.857 h 1.426 v -1.644 H 0 v 1.644 h 1.426 c 2.065,0 3.497,0.259 4.295,0.788 0.799,0.521 1.301,1.342 1.516,2.449 0.213,1.111 0.32,3.693 0.32,7.752 v 23.798 c 0,3.865 -0.107,6.356 -0.32,7.478 C 7.022,-1.855 6.547,-1.075 5.809,-0.65 5.072,-0.218 3.481,0 1.034,0 Z"
             style="fill:#3d1152;fill-opacity:1;fill-rule:nonzero;stroke:none"
             id="path64" />
        </g>
        <g
           id="g66"
           transform="translate(374.8301,72.4707)">
          <path
             d="m 0,0 h -2.15 l -16.873,38.657 c -0.316,0.686 -0.81,1.878 -1.487,3.568 -0.939,2.287 -1.93,3.82 -2.967,4.607 -1.036,0.786 -2.713,1.202 -5.027,1.252 v 1.643 h 21.027 v -1.643 c -2.619,0 -4.376,-0.193 -5.277,-0.576 -0.902,-0.382 -1.347,-1.109 -1.347,-2.182 0,-0.698 0.559,-2.32 1.691,-4.874 L 1.669,8.203 12.967,35.05 c 1.904,4.488 2.854,7.408 2.854,8.77 0,2.747 -1.961,4.168 -5.881,4.264 v 1.643 h 14.789 v -1.643 c -1.513,-0.05 -2.846,-0.587 -3.995,-1.608 -1.148,-1.019 -2.144,-2.512 -2.98,-4.485 L 14.48,34.399 Z"
             style="fill:#3d1152;fill-opacity:1;fill-rule:nonzero;stroke:none"
             id="path68" />
        </g>
        <g
           id="g70"
           transform="translate(442.2764,88.79)">
          <path
             d="M 0,0 H 1.643 L 0.595,-15.116 h -40.358 v 1.643 h 1.011 c 2.42,0 3.985,0.324 4.691,0.965 0.707,0.647 1.158,1.46 1.35,2.451 0.19,0.988 0.287,3.515 0.287,7.574 v 23.797 c 0,3.696 -0.1,6.131 -0.307,7.296 -0.204,1.174 -0.675,1.991 -1.407,2.457 -0.735,0.464 -2.28,0.698 -4.637,0.698 v 1.642 h 34.83 L -2.852,21.36 h -1.642 c -0.764,3.369 -1.696,5.765 -2.802,7.18 -1.108,1.413 -2.418,2.302 -3.945,2.67 -1.523,0.368 -3.975,0.555 -7.355,0.555 h -6.707 V 11.391 h 5.131 c 2.358,0 4.003,0.198 4.943,0.601 0.938,0.405 1.555,1.019 1.851,1.837 0.302,0.817 0.448,2.414 0.448,4.792 h 1.646 V 2.08 h -1.646 c 0,2.714 -0.221,4.528 -0.677,5.453 -0.449,0.925 -1.109,1.524 -1.979,1.799 -0.864,0.275 -2.335,0.416 -4.405,0.416 h -5.312 V -1.719 c 0,-5.738 0.37,-9.116 1.112,-10.129 0.738,-1.011 2.736,-1.514 5.992,-1.514 h 3.627 c 2.558,0 4.663,0.299 6.311,0.905 1.654,0.601 3.227,1.918 4.723,3.958 C -2.042,-6.461 -0.864,-3.623 0,0"
             style="fill:#3d1152;fill-opacity:1;fill-rule:nonzero;stroke:none"
             id="path72" />
        </g>
        <g
           id="g74"
           transform="translate(462.9502,98.7568)">
          <path
             d="m 0,0 c 1.801,0.049 3.664,0.116 5.588,0.214 1.924,0.095 3.592,0.357 5.011,0.787 1.415,0.431 2.561,1.057 3.439,1.883 0.879,0.821 1.568,1.901 2.073,3.24 0.506,1.333 0.758,2.981 0.758,4.938 0,3.415 -0.858,6.149 -2.578,8.202 C 12.574,21.317 8.832,22.346 3.066,22.346 2.177,22.346 1.154,22.294 0,22.203 Z M 36.915,-25.083 H 23.77 c -2.33,1.619 -5.895,5.849 -10.7,12.7 -1.533,2.184 -3.129,4.288 -4.786,6.298 -1.657,2.009 -2.794,3.232 -3.42,3.67 C 4.238,-1.977 3.265,-1.75 1.947,-1.75 H 0 v -10.739 c 0,-3.808 0.089,-6.295 0.273,-7.471 0.181,-1.178 0.658,-2.055 1.441,-2.622 0.778,-0.573 2.277,-0.857 4.488,-0.857 h 2.343 v -1.644 h -23.439 v 1.644 h 1.585 c 2.087,0 3.532,0.259 4.336,0.788 0.804,0.521 1.312,1.341 1.528,2.449 0.217,1.111 0.327,3.693 0.327,7.752 v 23.798 c 0,3.865 -0.11,6.356 -0.327,7.478 -0.216,1.117 -0.696,1.897 -1.445,2.321 -0.746,0.433 -2.363,0.651 -4.846,0.651 h -0.83 v 1.642 l 7.005,0.347 c 4.669,0.205 8.376,0.311 11.122,0.311 4.668,0 8.467,-0.433 11.393,-1.293 2.921,-0.858 5.286,-2.266 7.096,-4.219 1.803,-1.957 2.704,-4.291 2.704,-7.009 0,-3.171 -1.177,-5.879 -3.531,-8.117 -2.355,-2.242 -5.818,-3.638 -10.38,-4.186 2.084,-0.944 5.389,-4.472 9.903,-10.587 3.681,-4.93 6.572,-8.163 8.686,-9.696 2.11,-1.524 4.6,-2.334 7.483,-2.43 z"
             style="fill:#3d1152;fill-opacity:1;fill-rule:nonzero;stroke:none"
             id="path76" />
        </g>
        <g
           id="g78"
           transform="translate(504.3555,74.2227)">
          <path
             d="M 0,0 V 15.553 H 1.752 C 3.811,5.402 8.684,0.33 16.382,0.33 c 3.46,0 6.139,0.966 8.04,2.908 1.897,1.94 2.848,4.114 2.848,6.518 0,2.429 -0.833,4.464 -2.504,6.112 -1.671,1.617 -4.717,3.359 -9.136,5.222 -3.943,1.674 -6.918,3.134 -8.922,4.388 -2.007,1.257 -3.569,2.883 -4.698,4.883 -1.122,2.006 -1.682,4.138 -1.682,6.403 0,3.455 1.205,6.337 3.626,8.636 2.424,2.3 5.487,3.45 9.192,3.45 2.067,0 4.019,-0.332 5.845,-0.999 1.833,-0.669 3.708,-2.044 5.634,-4.133 1.108,1.308 1.734,2.732 1.881,4.257 h 1.64 V 35.269 h -1.64 c -0.913,3.669 -2.532,6.558 -4.856,8.666 -2.32,2.11 -5.01,3.163 -8.065,3.163 -2.906,0 -5.042,-0.772 -6.4,-2.318 -1.362,-1.549 -2.039,-3.238 -2.039,-5.079 0,-2.22 0.861,-4.092 2.593,-5.624 1.702,-1.557 4.746,-3.331 9.148,-5.315 4.207,-1.892 7.27,-3.397 9.185,-4.533 1.915,-1.132 3.451,-2.697 4.609,-4.705 1.158,-2.001 1.737,-4.31 1.737,-6.932 0,-4.149 -1.4,-7.523 -4.2,-10.121 C 25.415,-0.127 21.674,-1.425 16.99,-1.425 11.604,-1.425 7.115,0.612 3.515,4.689 2.723,3.577 2.134,2.013 1.752,0 Z"
             style="fill:#3d1152;fill-opacity:1;fill-rule:nonzero;stroke:none"
             id="path80" />
        </g>
        <g
           id="g82"
           transform="translate(542.0801,120.5547)">
          <path
             d="M 0,0 V 1.643 H 22.236 V 0 H 21.199 C 18.828,0 17.269,-0.199 16.53,-0.593 15.793,-0.986 15.302,-1.72 15.052,-2.795 14.799,-3.868 14.676,-6.419 14.676,-10.45 v -23.798 c 0,-3.82 0.092,-6.321 0.266,-7.502 0.182,-1.18 0.656,-2.056 1.428,-2.63 0.773,-0.573 2.254,-0.857 4.44,-0.857 h 1.426 v -1.644 H 0 v 1.644 h 1.43 c 2.064,0 3.498,0.259 4.293,0.788 0.795,0.521 1.3,1.342 1.512,2.449 0.216,1.111 0.32,3.693 0.32,7.752 v 23.798 c 0,3.865 -0.104,6.356 -0.32,7.478 C 7.023,-1.855 6.547,-1.075 5.812,-0.65 5.077,-0.218 3.48,0 1.034,0 Z"
             style="fill:#3d1152;fill-opacity:1;fill-rule:nonzero;stroke:none"
             id="path84" />
        </g>
        <g
           id="g86"
           transform="translate(569.7803,110.4775)">
          <path
             d="m 0,0 h -1.643 l 0.25,11.72 H 46.189 L 46.442,0 h -1.534 c -0.554,3.179 -1.317,5.47 -2.276,6.884 -0.965,1.413 -2.001,2.276 -3.111,2.6 -1.107,0.322 -3.002,0.483 -5.678,0.483 H 25.96 v -34.168 c 0,-3.783 0.087,-6.275 0.27,-7.462 0.175,-1.19 0.664,-2.069 1.453,-2.64 0.79,-0.573 2.274,-0.857 4.451,-0.857 h 2.369 v -1.644 H 10.078 v 1.644 h 2.527 c 2.088,0 3.538,0.26 4.342,0.783 0.807,0.525 1.321,1.341 1.55,2.447 0.231,1.105 0.342,3.684 0.342,7.729 V 9.967 H 11.586 C 8.437,9.967 6.317,9.816 5.234,9.523 4.152,9.223 3.136,8.326 2.186,6.831 1.231,5.333 0.509,3.06 0,0"
             style="fill:#3d1152;fill-opacity:1;fill-rule:nonzero;stroke:none"
             id="path88" />
        </g>
        <g
           id="g90"
           transform="translate(645.8145,94.834)">
          <path
             d="m 0,0 9.505,16.125 c 1.585,2.626 2.38,4.486 2.38,5.586 0,0.999 -0.419,1.922 -1.263,2.758 -0.842,0.834 -2.349,1.252 -4.517,1.252 v 1.642 h 15.991 v -1.642 c -2.211,-0.313 -4.003,-1.13 -5.359,-2.457 -1.36,-1.322 -3.1,-3.724 -5.214,-7.209 L 0.738,-2.086 v -6.441 c 0,-4.131 0.126,-6.764 0.379,-7.896 0.25,-1.133 0.793,-1.93 1.625,-2.397 0.833,-0.464 2.461,-0.697 4.896,-0.697 v -1.643 h -21.03 v 1.643 h 0.792 c 2.097,0 3.55,0.26 4.357,0.788 0.806,0.522 1.317,1.342 1.533,2.45 0.218,1.111 0.327,3.693 0.327,7.752 v 5.975 l -12.232,19.859 c -2.475,4.006 -4.12,6.4 -4.942,7.176 -0.815,0.776 -2.282,1.187 -4.401,1.238 v 1.642 h 19.824 v -1.642 c -3.69,0 -5.531,-0.834 -5.531,-2.508 0,-0.668 0.612,-2.005 1.841,-4.007 z"
             style="fill:#3d1152;fill-opacity:1;fill-rule:nonzero;stroke:none"
             id="path92" />
        </g>
        <g
           id="g94"
           transform="translate(675.6367,119.2139)">
          <path
             d="m 0,0 v -1.513 h 0.91 c 0.411,0 0.724,0.053 0.94,0.162 0.212,0.106 0.318,0.319 0.318,0.639 0,0.218 -0.092,0.391 -0.278,0.521 C 1.706,-0.063 1.413,0 1.02,0 Z M 0,-4.683 H -1.137 V 0.883 H 1.499 C 1.912,0.883 2.255,0.82 2.533,0.689 2.814,0.559 3.021,0.372 3.164,0.135 3.306,-0.106 3.374,-0.385 3.374,-0.699 3.374,-1.09 3.245,-1.43 2.979,-1.716 2.714,-2.001 2.347,-2.178 1.876,-2.238 2.116,-2.329 2.312,-2.466 2.464,-2.647 2.61,-2.825 2.809,-3.128 3.056,-3.559 L 3.71,-4.683 H 2.309 L 1.85,-3.786 C 1.634,-3.384 1.45,-3.085 1.304,-2.893 1.152,-2.699 1,-2.57 0.851,-2.498 0.698,-2.432 0.512,-2.395 0.296,-2.395 H 0 Z m 1.132,7.025 c -0.761,0 -1.468,-0.19 -2.116,-0.565 -0.65,-0.379 -1.161,-0.89 -1.537,-1.537 -0.378,-0.651 -0.571,-1.356 -0.571,-2.118 0,-0.758 0.193,-1.466 0.571,-2.119 0.382,-0.647 0.896,-1.16 1.545,-1.534 0.649,-0.375 1.347,-0.561 2.108,-0.561 0.772,0 1.475,0.187 2.119,0.564 0.64,0.377 1.145,0.886 1.521,1.537 0.376,0.649 0.563,1.355 0.563,2.113 0,0.768 -0.187,1.473 -0.563,2.124 C 4.396,0.896 3.891,1.404 3.245,1.78 2.602,2.155 1.896,2.342 1.132,2.342 M 1.117,3.368 C 1.835,3.368 2.51,3.233 3.147,2.966 3.785,2.699 4.345,2.325 4.83,1.837 5.318,1.353 5.694,0.788 5.961,0.154 6.226,-0.482 6.363,-1.159 6.363,-1.878 6.363,-2.825 6.128,-3.703 5.66,-4.508 5.191,-5.313 4.555,-5.951 3.748,-6.418 2.943,-6.886 2.067,-7.119 1.117,-7.119 c -0.95,0 -1.826,0.233 -2.633,0.701 -0.806,0.467 -1.441,1.105 -1.906,1.91 -0.469,0.805 -0.704,1.683 -0.704,2.63 0,0.952 0.235,1.831 0.704,2.635 0.465,0.805 1.1,1.44 1.906,1.909 0.807,0.468 1.683,0.702 2.633,0.702"
             style="fill:#3d1152;fill-opacity:1;fill-rule:nonzero;stroke:none"
             id="path96" />
        </g>
      </g>
    </g>
  </g>
</svg>
